# xmcd
#
# Track frame offsets:
#	150
#	9480
#	19561
#	32325
#	43372
#	55417
#	71529
#	83024
#	94951
#	105691
#	117369
#	130757
#	141561
#	153859
#	166006
#	179585
#	190808
#	202430
#	213459
#	225660
#
# Disc length: 3162 seconds
#
# Revision: 0
# Processed by: cddbd v1.5.1PL2 Copyright (c) Steve Scherf et al.
# Submitted via: dBpowerAMP V4.0
#
DISCID=190c5814
DTITLE=Various Artist - Drivin' Country
DYEAR=2003
DGENRE=Country
TTITLE0=Faron Young - King Of The Road
TTITLE1=Willie Nelson - On The Road Again
TTITLE2=Hank Snow - I'm Movin' On
TTITLE3=Tennessee Ernie Ford - Tennessee Border
TTITLE4=Art Gibson - I'm A Truck Drivin' Man
TTITLE5=Mac Wiseman - 18 Wheels Hummin' Home Sweet Home
TTITLE6=Hank Thompson - Oklahoma Hills
TTITLE7=Red Foley - Hot Rod Race
TTITLE8=Dave Dudley - Six Days On The Road
TTITLE9=Milo Twins - Truck Driver's Boogie
TTITLE10=Cliff Bruner And His Boys - Truck Driver's Blues
TTITLE11=Joe "Cannonball" Lewis - Truck Driver's Night Run Blues
TTITLE12=The Delmore Brothers - Mobile Boogie
TTITLE13=Flatt And Scruggs - Down The Road
TTITLE14=Karl And Harty - Truck Driver's Sweetheart
TTITLE15=Dick Reinhart And His Lone Star Boys - Truck Driver's Coffee Shop
TTITLE16=Doye O'Dell - Diesel Smoke (Dangerous Curves)
TTITLE17=Red Sovine - Woman Behind The Man Behind The Wheel
TTITLE18=Johnny Dollar - Big Rig Rollin' Man
TTITLE19=Bill Monroe - Rocky Road Blues
EXTD=
EXTT0=
EXTT1=
EXTT2=
EXTT3=
EXTT4=
EXTT5=
EXTT6=
EXTT7=
EXTT8=
EXTT9=
EXTT10=
EXTT11=
EXTT12=
EXTT13=
EXTT14=
EXTT15=
EXTT16=
EXTT17=
EXTT18=
EXTT19=
PLAYORDER=
